# AST/ASF file generated using VICON BodyLanguage
# -----------------------------------------------
:version 1.10
:name VICON
:units
  mass 1.0
  length 0.45
  angle deg
:documentation
   .ast/.asf automatically generated from VICON data using
   VICON BodyBuilder and BodyLanguage model FoxedUp or BRILLIANT.MOD
:root
   order TX TY TZ RX RY RZ
   axis XYZ
   position 0 0 0  
   orientation 0 0 0 
:bonedata
  begin
     id 1 
     name lhipjoint
     direction 0.440178 -0.822639 0.359871 
     length 2.53113 
     axis 0 0 0  XYZ
  end
  begin
     id 2 
     name lfemur
     direction 0.34202 -0.939693 0  
     length 7.88132  
     axis 0 0 20  XYZ
    dof rx ry rz
    limits (-160.0 20.0)
           (-70.0 70.0)
           (-60.0 70.0)
  end
  begin
     id 3 
     name ltibia
     direction 0.34202 -0.939693 0   
     length 8.43783   
     axis 0 0 20   XYZ
    dof rx
    limits (-10.0 170.0)
  end
  begin
     id 4 
     name lfoot
     direction 0.0886351 -0.243523 0.965837   
     length 2.63414   
     axis -90 7.62852e-016 20   XYZ
    dof rx rz
    limits (-45.0 90.0)
           (-70.0 20.0)
  end
  begin
     id 5 
     name ltoes
     direction 1.53703e-011 -4.21717e-011 1   
     length 1.31427   
     axis -90 7.62852e-016 20   XYZ
    dof rx
    limits (-90.0 20.0)
  end
  begin
     id 6 
     name rhipjoint
     direction -0.399779 -0.839773 0.367367   
     length 2.47948  
     axis 0 0 0  XYZ 
  end
  begin
     id 7 
     name rfemur
     direction -0.34202 -0.939693 0   
     length 7.74806   
     axis 0 0 -20   XYZ
    dof rx ry rz
    limits (-160.0 20.0)
           (-70.0 70.0)
           (-70.0 60.0)
  end
  begin
     id 8 
     name rtibia
     direction -0.34202 -0.939693 0   
     length 8.74432   
     axis 0 0 -20   XYZ
    dof rx
    limits (-10.0 170.0)
 end
 begin
     id 9 
     name rfoot
     direction -0.108514 -0.298139 0.948334   
     length 2.66102  
     axis -90 -7.62852e-016 -20   XYZ
    dof rx rz
    limits (-45.0 90.0)
           (-20.0 70.0)
  end
  begin
     id 10 
     name rtoes
     direction -1.53392e-011 -4.22077e-011 1   
     length 1.31983   
     axis -90 -7.62852e-016 -20   XYZ
    dof rx
    limits (-90.0 20.0)
  end
  begin
     id 11 
     name lowerback
     direction 0.0113257 0.999866 0.0118602   
     length 2.58694   
     axis 0 0 0   XYZ
    dof rx ry rz
    limits (-20.0 45.0)
           (-30.0 30.0)
           (-30.0 30.0)
  end
  begin
     id 12 
     name upperback
     direction -0.0164747 0.995193 -0.0965375   
     length 2.52368   
     axis 0 0 0   XYZ
    dof rx ry rz
    limits (-20.0 45.0)
           (-30.0 30.0)
           (-30.0 30.0)
  end
  begin
     id 13 
     name thorax
     direction -0.0194301 0.99433 -0.104552   
     length 2.56099   
     axis 0 0 0   XYZ
    dof rx ry rz
    limits (-20.0 45.0)
           (-30.0 30.0)
           (-30.0 30.0)
  end
  begin
     id 14 
     name lowerneck
     direction 0.0148543 0.995587 -0.092657   
     length 1.71582   
     axis 0 0 0   XYZ
    dof rx ry rz
    limits (-20.0 45.0)
           (-30.0 30.0)
           (-30.0 30.0)
  end
  begin
     id 15 
     name upperneck
     direction -0.0135467 0.993656 -0.111639   
     length 1.68937   
     axis 0 0 0   XYZ
    dof rx ry rz
    limits (-20.0 45.0)
           (-30.0 30.0)
           (-30.0 30.0)
  end
  begin
     id 16
     name head
     direction -0.00615349 0.999547 -0.029448  
     length 1.7462  
     axis 0 0 0   XYZ
    dof rx ry rz
    limits (-20.0 45.0)
           (-30.0 30.0)
           (-30.0 30.0)
  end
  begin
     id 17 
     name lclavicle
     direction 0.988267 0.149885 0.0293713  
     length 4.47222  
     axis 0 0 0   XYZ
    dof ry rz
    limits (-20.0 10.0)
           (0.0 20.0)
  end
  begin
     id 18 
     name lhumerus
     direction 1 -4.48986e-011 -1.14833e-027   
     length 5.37148   
     axis 180 -30 -90   XYZ
    dof rx ry rz
    limits (-60.0 90.0)
           (-90.0 90.0)
           (-90.0 90.0)
  end
  begin
     id 19
     name lradius
     direction 0.999998 0.00170963 -0.000987055   
     length 3.94212   
     axis 180 -30 -90   XYZ
    dof rx
    limits (-10.0 170.0)
  end
  begin
     id 20
     name lwrist
     direction 0.999998 7.53149e-005 -0.00194706   
     length 1.97106   
     axis 4.65056e-015 90 90   XYZ
    dof ry
    limits (-180.0 0.0)
 end
  begin
     id 21 
     name lhand
     direction 1 -4.48973e-011 -1.31746e-026   
     length 1.17917   
     axis 8.4065e-015 90 90   XYZ
    dof rx rz
    limits (-90.0 90.0)
           (-45.0 45.0)
  end
  begin
     id 22 
     name lfingers
     direction 1 -4.49107e-011 -2.63492e-026   
     length 0.950679   
     axis 1.6813e-014 90 90   XYZ
    dof rx
    limits (0.0 90.0)
  end
  begin
     id 23
     name lthumb
     direction 0.707107 -6.35048e-011 0.707107   
     length 1.36499   
     axis -90 45 2.85299e-015   XYZ
    dof rx rz
    limits (-45.0 45.0)
           (-45.0 45.0)
  end
  begin
     id 24 
     name rclavicle
     direction -0.996699 0.0642895 -0.0495725   
     length 4.62611  
     axis 0 0 0   XYZ 
    dof ry rz
    limits (-10.0 20.0)
           (-20.0 0.0)
  end
  begin
     id 25 
     name rhumerus
     direction -1 -4.48919e-011 -2.41059e-027  
     length 5.4981   
     axis 180 30 90   XYZ
    dof rx ry rz
    limits (-90.0 60.0)
           (-90.0 90.0)
           (-90.0 90.0)
  end
  begin
     id 26 
     name rradius
     direction -0.999999 0.00118101 -0.000681858   
     length 3.48381   
     axis 180 30 90   XYZ
    dof rx
    limits (-10.0 170.0)
  end
  begin
     id 27 
     name rwrist
     direction -0.999999 0.000321823 -0.00132288   
     length 1.7419   
     axis 4.65056e-015 -90 -90   XYZ
    dof ry
    limits (-180.0 0.0)
  end
  begin
     id 28
     name rhand
     direction -1 -4.49022e-011 -1.31746e-026   
     length 1.34932   
     axis 8.4065e-015 -90 -90   XYZ
    dof rx rz
    limits (-90.0 90.0)
           (-45.0 45.0)
  end
  begin
     id 29
     name rfingers
     direction -1 -4.49178e-011 -2.63492e-026   
     length 1.08785   
     axis 1.6813e-014 -90 -90   XYZ
    dof rx
    limits (0.0 90.0)
  end
  begin
     id 30
     name rthumb
     direction -0.707107 -6.34713e-011 0.707107   
     length 1.56195   
     axis -90 -45 -2.85299e-015   XYZ
    dof rx rz
    limits (-45.0 45.0)
           (-45.0 45.0)
  end
:hierarchy
  begin
    root lhipjoint rhipjoint lowerback
    lhipjoint lfemur
    lfemur ltibia
    ltibia lfoot
    lfoot ltoes
    rhipjoint rfemur
    rfemur rtibia
    rtibia rfoot
    rfoot rtoes
    lowerback upperback
    upperback thorax
    thorax lowerneck lclavicle rclavicle
    lowerneck upperneck
    upperneck head
    lclavicle lhumerus
    lhumerus lradius
    lradius lwrist
    lwrist lhand lthumb
    lhand lfingers
    rclavicle rhumerus
    rhumerus rradius
    rradius rwrist
    rwrist rhand rthumb
    rhand rfingers
  end

#!OML:ASF X:\für Bonn\!DataBase\2005_08_10_Bjorn_Final\c3d\bjorn.ASF
:FULLY-SPECIFIED
:DEGREES
1
root -0.239406 18.9821 0.610884 341.115 -263.885 -375.267
lowerback -1.19724 -0.562389 4.17956
upperback 9.26125 -0.77193 0.69327
thorax 10.4741 0.0847236 -1.645
lowerneck 0.249434 -3.99081 1.9546
upperneck 22.7764 -4.13836 -3.11747
head 6.77204 -1.7325 -1.52654
rclavicle 1.07344e-014 -1.35174e-014
rhumerus -27.6781 -25.1902 -80.6623
rradius 20.4988
rwrist 11.5574
rhand -11.6507 10.3416
rfingers 7.12502
rthumb 14.3936 -19.1393
lclavicle 1.07344e-014 -1.35174e-014
lhumerus -20.6427 -3.55426 88.5905
lradius 22.4555
lwrist -31.5912
lhand -12.1934 -2.2655
lfingers 7.12502
lthumb 13.8706 27.252
rfemur -22.6285 -9.62351 17.2647
rtibia 33.1757
rfoot -1.30692 10.6069
rtoes -0.423683
lfemur 7.67295 0.894489 -17.1759
ltibia 51.5999
lfoot 9.69457 4.03367
ltoes -22.2278
2
root -0.131035 19.0286 0.620943 340.381 -263.83 -376.018
lowerback -0.950395 -0.453859 4.18279
upperback 9.23499 -0.605295 0.639763
thorax 10.3052 0.16589 -1.68605
lowerneck 0.333084 -4.11522 2.07716
upperneck 22.8952 -4.27613 -3.22997
head 6.78627 -1.79015 -1.59003
rclavicle -1.72943e-014 1.35174e-014
rhumerus -27.0768 -24.3999 -81.2253
rradius 20.9959
rwrist 10.7198
rhand -11.8598 10.3326
rfingers 7.12502
rthumb 14.1921 -19.1626
lclavicle -1.72943e-014 1.35174e-014
lhumerus -20.9908 -2.50314 88.5189
lradius 21.7629
lwrist -32.8936
lhand -11.1368 -2.20055
lfingers 7.12502
lthumb 14.8888 27.2444
rfemur -21.9278 -9.57418 17.1689
rtibia 32.6125
rfoot -1.4326 10.5549
rtoes -0.403955
lfemur 6.3147 1.32459 -17.2166
ltibia 53.0517
lfoot 8.7243 5.10277
ltoes -20.1431
3
root -0.027163 19.0729 0.630861 339.544 -263.749 -376.874
lowerback -0.690214 -0.357421 4.15093
upperback 9.21254 -0.451604 0.58019
thorax 10.1323 0.238353 -1.71621
lowerneck 0.409347 -4.23896 2.19967
upperneck 23.0076 -4.41069 -3.35765
head 6.799 -1.8477 -1.65827
rclavicle 1.2921e-014 3.18055e-014
rhumerus -26.4835 -23.5411 -81.7885
rradius 21.5043
rwrist 9.8347
rhand -12.1088 10.3944
rfingers 7.12502
rthumb 13.9522 -19.1174
lclavicle 1.2921e-014 3.18055e-014
lhumerus -21.3491 -1.45432 88.4032
lradius 21.1302
lwrist -34.2628
lhand -10.1289 -2.20116
lfingers 7.12502
lthumb 15.8595 27.1693
rfemur -21.2484 -9.57855 17.0515
rtibia 32.0471
rfoot -1.54923 10.5456
rtoes -0.567011
lfemur 4.95953 1.80625 -17.3061
ltibia 54.312
lfoot 7.80922 5.71815
ltoes -19.4173
4
root 0.0725509 19.1138 0.641592 338.835 -263.65 -377.637
lowerback -0.4788 -0.275732 4.06265
upperback 9.20134 -0.320619 0.56013
thorax 10.0002 0.294288 -1.67578
lowerneck 0.477515 -4.34366 2.25029
upperneck 23.1103 -4.51627 -3.47955
head 6.81256 -1.89718 -1.71113
rclavicle 1.78906e-015 -1.03368e-014
rhumerus -25.8622 -22.4806 -82.3281
rradius 22.0861
rwrist 8.74925
rhand -12.3944 10.4321
rfingers 7.12502
rthumb 13.6769 -19.0985
lclavicle 1.78906e-015 -1.03368e-014
lhumerus -21.7371 -0.335638 88.3048
lradius 20.6566
lwrist -35.643
lhand -9.06021 -2.25219
lfingers 7.12502
lthumb 16.8885 27.0335
rfemur -20.6272 -9.5729 16.9451
rtibia 31.4934
rfoot -1.67992 10.4792
rtoes -0.629531
lfemur 3.57989 2.30398 -17.4041
ltibia 55.3568
lfoot 6.92654 6.04663
ltoes -19.5649
5
root 0.16939 19.1521 0.651263 338.556 -263.576 -377.983
lowerback -0.330603 -0.195501 4.02587
upperback 9.24159 -0.197717 0.554425
thorax 9.964 0.35377 -1.64957
lowerneck 0.420671 -4.44048 2.28499
upperneck 23.2292 -4.6184 -3.59486
head 6.85358 -1.94811 -1.7625
rclavicle -2.10712e-014 -2.14687e-014
rhumerus -25.2039 -21.3547 -82.8852
rradius 22.7816
rwrist 7.58346
rhand -12.7328 10.5037
rfingers 7.12502
rthumb 13.3508 -19.0486
lclavicle -2.10712e-014 -2.14687e-014
lhumerus -22.0454 0.739148 88.2069
lradius 20.2837
lwrist -36.8096
lhand -7.95299 -2.34861
lfingers 7.12502
lthumb 17.9541 26.8427
rfemur -20.0603 -9.59664 16.8941
rtibia 30.9747
rfoot -1.76169 10.475
rtoes -0.563824
lfemur 2.24021 2.78822 -17.4767
ltibia 56.1688
lfoot 5.96451 6.28837
ltoes -19.459
6
root 0.263421 19.1879 0.661507 338.116 -263.506 -378.524
lowerback -0.227238 -0.114591 3.93951
upperback 9.28897 -0.0746736 0.559182
thorax 9.96204 0.409342 -1.5848
lowerneck 0.399994 -4.52115 2.24769
upperneck 23.3011 -4.70182 -3.67437
head 6.87662 -1.99406 -1.78773
rclavicle 2.94201e-014 2.3059e-014
rhumerus -24.5784 -20.1413 -83.4028
rradius 23.5581
rwrist 6.41395
rhand -13.1435 10.6229
rfingers 7.12502
rthumb 12.9549 -18.9549
lclavicle 2.94201e-014 2.3059e-014
lhumerus -22.3664 1.69309 88.1444
lradius 20.0435
lwrist -37.7223
lhand -6.85359 -2.39515
lfingers 7.12502
lthumb 19.0116 26.6957
rfemur -19.5687 -9.60241 16.828
rtibia 30.5054
rfoot -1.87743 10.4597
rtoes -0.471076
lfemur 0.900653 3.25037 -17.5839
ltibia 56.7666
lfoot 4.93962 6.41206
ltoes -19.0389
